<?xml version="1.0" encoding="utf-8"?>
<!-- Generator: Adobe Illustrator 21.1.0, SVG Export Plug-In . SVG Version: 6.00 Build 0)  -->
<!DOCTYPE svg PUBLIC "-//W3C//DTD SVG 1.1//EN" "http://www.w3.org/Graphics/SVG/1.1/DTD/svg11.dtd">
<svg version="1.1" xmlns="http://www.w3.org/2000/svg" xmlns:xlink="http://www.w3.org/1999/xlink" x="0px" y="0px"
	 viewBox="0 100 500 300" enable-background="new 0 0 500 500" xml:space="preserve">
<g id="header">
</g>
<g id="sec_x5F_1">
</g>
<g id="sec_x5F_2">
</g>
<g id="sec_x5F_3">
</g>
<g id="sec_x5F_4">
</g>
<g id="footer">
</g>
<g id="sec_x5F_6">
	<rect x="909.5" y="-875.9" display="none" fill="#AF252A" width="50" height="50"/>
	<g>
		<g>
			<path fill="#FFFFFF" d="M229.6,240.9h-21.7c-13,0-19.6-6.5-19.6-19.4v-16.8c0-13.2,6.5-19.9,19.4-19.9H223V174
				c0-4.4,2.2-6.6,6.5-6.6s6.5,2.1,6.5,6.4v60.5C235.9,238.7,233.8,240.9,229.6,240.9 M223,227.9v-30.2h-15.1
				c-4.4,0-6.6,2.2-6.6,6.6v17.3c0,4.2,2.2,6.3,6.6,6.3H223z"/>
			<path fill="#FFFFFF" d="M257.7,240.8c-4.4,0-6.6-2.2-6.6-6.6v-36.5c-4.4,0-6.5-2.1-6.5-6.3c0-4.4,2.2-6.6,6.5-6.7l6.5-0.1
				c4.3,0.1,6.5,2.3,6.5,6.5v43C264,238.6,261.9,240.8,257.7,240.8 M254.1,168.3c-1,0.5-1.8,1.3-2.4,2.4c-0.6,1-0.9,2.1-0.9,3.2
				c0,1.1,0.3,2.2,0.9,3.2c0.6,1,1.4,1.8,2.4,2.4c1,0.6,2.1,0.8,3.2,0.8c1.1,0,2.1-0.3,3.2-0.8c1-0.6,1.8-1.4,2.4-2.4
				c0.6-1,0.8-2.1,0.8-3.2c0-1.1-0.3-2.2-0.9-3.2c-0.6-1-1.4-1.8-2.4-2.4c-1-0.5-2.1-0.8-3.1-0.8
				C256.1,167.4,255.1,167.7,254.1,168.3"/>
			<path fill="#FFFFFF" d="M320.3,191.2V239c0,12.7-6.5,19.1-19.4,19.1h-13.5c-4.1,0-6.2-2.2-6.3-6.5c0-4.3,2-6.4,6.2-6.4h15.4
				c3.1,0,4.6-1.5,4.6-4.5h-15.2c-12.9,0-19.4-6.6-19.4-19.9v-16.6c0-13.1,6.5-19.6,19.6-19.6h21.6
				C318.2,184.6,320.3,186.8,320.3,191.2 M292.2,197.6c-4.4,0-6.6,2.2-6.6,6.6v16.9c0,4.4,2.2,6.7,6.6,6.7h15.1v-30.2H292.2z"/>
			<path fill="#FFFFFF" d="M342,240.8c-4.4,0-6.6-2.2-6.6-6.6v-36.5c-4.4,0-6.5-2.1-6.5-6.3c0-4.4,2.2-6.6,6.5-6.7l6.5-0.1
				c4.3,0.1,6.5,2.3,6.5,6.5v43C348.4,238.6,346.3,240.8,342,240.8 M338.4,168.3c-1,0.5-1.8,1.3-2.4,2.4c-0.6,1-0.9,2.1-0.9,3.2
				c0,1.1,0.3,2.2,0.9,3.2c0.6,1,1.4,1.8,2.4,2.4c1,0.6,2.1,0.8,3.2,0.8c1.1,0,2.2-0.3,3.2-0.8c1-0.6,1.8-1.4,2.4-2.4
				c0.6-1,0.8-2.1,0.8-3.2c0-1.1-0.3-2.2-0.9-3.2c-0.6-1-1.4-1.8-2.4-2.4c-1-0.5-2.1-0.8-3.1-0.8
				C340.5,167.4,339.4,167.7,338.4,168.3"/>
			<path fill="#FFFFFF" d="M387.4,234.5c0,4.3-2.2,6.4-6.5,6.4h-4.4c-12.9,0-19.4-6.6-19.4-19.9v-42.7c0-4.3,2.2-6.5,6.5-6.5
				c4.4,0,6.5,2.1,6.5,6.5v6.4l10.5,0c4.5,0,6.8,2.1,6.8,6.4c0,4.2-2.2,6.3-6.6,6.4l-10.7,0v23.7c0,4.4,2.2,6.6,6.6,6.6l4.4,0
				C385.3,228,387.4,230.1,387.4,234.5"/>
			<path fill="#FFFFFF" d="M436.9,240.9c-4.4,0-6.6-2.2-6.6-6.6v-10.7l-21.5,0l0,10.8c0,4.4-2.2,6.6-6.5,6.6c-4.3,0-6.5-2.2-6.5-6.5
				v-29.8c0-13.2,6.5-19.9,19.4-19.9l21.5,0c4.3,0,6.5,2.1,6.5,6.4v43.1C443.3,238.7,441.2,240.9,436.9,240.9 M430.3,210.5v-12.8
				h-14.9c-4.4,0-6.6,2.2-6.6,6.7v6.2H430.3z"/>
			<path fill="#FFFFFF" d="M458.5,167.3c4.4,0,6.6,2.2,6.6,6.6v53.9c4.4,0,6.6,2.1,6.5,6.3c0,4.3-2.2,6.6-6.5,6.7l-6.5,0.1
				c-4.3-0.1-6.5-2.2-6.5-6.5v-60.4C452.1,169.5,454.2,167.3,458.5,167.3"/>
			<path fill="#FFFFFF" d="M239.5,274.3v51.1c0,13.6-6.9,20.4-20.8,20.4h-14.4c-4.4,0-6.7-2.3-6.7-6.9c0-4.6,2.2-6.9,6.6-6.9h16.5
				c3.3,0,4.9-1.6,4.9-4.8h-16.2c-13.8,0-20.8-7.1-20.8-21.2v-17.8c0-14,7-21,21-21h23.1C237.2,267.3,239.5,269.7,239.5,274.3
				 M209.5,281.2c-4.7,0-7,2.4-7,7.1v18c0,4.7,2.4,7.1,7.1,7.1h16.1v-32.2H209.5z"/>
			<path fill="#FFFFFF" d="M288,292.8c-4.7,0-7.1-2.3-7.1-7v-4.5h-11.4c-4.7,0-7.1,2.4-7.1,7.1v32c0,4.7-2.3,7-6.9,7
				c-4.6,0-6.9-2.3-6.9-6.9v-31.8c0-14.1,6.9-21.2,20.8-21.2l18.5,0c4.6,0,6.9,2.3,6.9,6.8v11.5C294.8,290.5,292.5,292.8,288,292.8"
				/>
			<path fill="#FFFFFF" d="M324.9,267.4h9.2c13.9,0,20.8,6.9,20.8,20.8v17.9c0,14.1-6.9,21.2-20.8,21.2h-9.5
				c-13.7,0-20.6-6.9-20.6-20.8v-18.4C304.1,274.3,311,267.4,324.9,267.4 M324.7,281.3c-4.6,0-6.8,2.3-6.8,6.9v18.2
				c0,4.7,2.3,7.1,6.8,7.1h9.3c4.7,0,7-2.4,7-7.1V288c0-4.5-2.3-6.7-7-6.7H324.7z"/>
			<path fill="#FFFFFF" d="M414.9,274.3v46.2c0,4.5-2.3,6.8-6.9,6.8l-23.2,0c-13.8,0-20.8-7.1-20.8-21.2v-31.8
				c0-4.6,2.3-6.9,6.9-6.9c4.6,0,6.9,2.3,6.9,7v32c0,4.7,2.4,7.1,7.1,7.1h16.1v-39.1c0-4.7,2.4-7,7.1-7
				C412.7,267.3,414.9,269.7,414.9,274.3"/>
			<path fill="#FFFFFF" d="M431,267.4h23.2c13.9,0,20.8,6.9,20.8,20.8v17.9c0,14.1-6.9,21.2-20.8,21.2H438v11.5
				c0,4.7-2.3,7.1-6.9,7.1c-4.6,0-6.9-2.3-6.9-6.9v-64.6C424.2,269.7,426.4,267.4,431,267.4 M438,281.3v32.2h16.1c4.7,0,7-2.4,7-7.1
				V288c0-4.5-2.3-6.7-7-6.7H438z"/>
			<path fill="#EF4D1D" d="M67.7,312.2c0,13.1,10.6,23.6,23.6,23.6c13,0,23.6-10.6,23.6-23.6c0-13.1-10.6-23.6-23.6-23.6
				C78.3,288.6,67.7,299.2,67.7,312.2"/>
			<path fill="#EF4D1D" d="M90.2,183.6c0-31.5,41.3-27.7,41.3-27.7v-34.5c-56.2,0-76.5,36-76.5,66c0,30,19.5,51,36.7,74.3
				c8.6,11.6,15.7,18.9,22.1,27c5.2,6.5,9.6,14.7,9.6,23.6c0,0.8,0,1.5-0.1,2.3v0.3c0,0.3,0,0.8-0.1,1.3
				c-1.9,15.9-15.5,28.3-31.9,28.3c-4.8,0-9.3-1.1-13.4-2.9c-10.7-4.8-17.3-15.3-18.3-23.7c-0.3-1.8-0.5-3.7-0.5-5.5
				c0-7.6,2.7-14.6,7.1-20.2c5.8-7.5,14.9-11.8,14.9-11.8l-20.1-23.6c0,0-36.1,17.6-36.1,60.5c0,35.3,30,61.5,67.5,61.5
				s65.3-28.5,65.3-61.5C157.8,265.6,90.2,231.6,90.2,183.6"/>
		</g>
	</g>
</g>
</svg>
